<svg width="500" height="500" viewBox="0 0 500 500" fill="none" xmlns="http://www.w3.org/2000/svg">
<g clip-path="url(#clip0_30_35)">
<path d="M75 275C75 215.391 102.891 150 162.5 150C183.828 150 209.141 158.047 227.109 165.078C241.797 170.781 258.281 170.781 272.969 165.078C290.859 158.125 316.25 150 337.578 150C397.188 150 425.078 215.391 425.078 275C425.078 375 362.578 450 300.078 450C287.188 450 270.312 444.844 259.844 441.172C253.516 438.984 246.641 438.984 240.312 441.172C229.844 444.844 212.969 450 200.078 450C137.5 450 75 375 75 275Z" fill="#ED3548"/>
<path d="M250 137.5C243.125 137.5 237.5 131.875 237.5 125V112.5C237.5 77.9688 265.469 50 300 50H312.5C319.375 50 325 55.625 325 62.5V75C325 109.531 297.031 137.5 262.5 137.5H250Z" fill="#23912E"/>
</g>
<defs>
<clipPath id="clip0_30_35">
<rect width="350" height="400" fill="white" transform="translate(75 50)"/>
</clipPath>
</defs>
</svg>
