<svg width="500" height="500" viewBox="0 0 500 500" fill="none" xmlns="http://www.w3.org/2000/svg">
<path d="M75 100C75 86.1719 86.1719 75 100 75H325C338.828 75 350 86.1719 350 100V125H390C423.125 125 450 151.875 450 185V264.766C450 288.516 436.016 310 414.375 319.609L350 348.203V375C350 402.578 327.578 425 300 425H125C97.4219 425 75 402.578 75 375V100ZM350 293.438L394.062 273.828C397.656 272.188 400 268.672 400 264.687V185C400 179.453 395.547 175 390 175H350V293.438ZM175 162.5C175 155.625 169.375 150 162.5 150C155.625 150 150 155.625 150 162.5V337.5C150 344.375 155.625 350 162.5 350C169.375 350 175 344.375 175 337.5V162.5ZM225 162.5C225 155.625 219.375 150 212.5 150C205.625 150 200 155.625 200 162.5V337.5C200 344.375 205.625 350 212.5 350C219.375 350 225 344.375 225 337.5V162.5ZM275 162.5C275 155.625 269.375 150 262.5 150C255.625 150 250 155.625 250 162.5V337.5C250 344.375 255.625 350 262.5 350C269.375 350 275 344.375 275 337.5V162.5Z" fill="#E2C270"/>
</svg>
