<svg width="500" height="500" viewBox="0 0 500 500" fill="none" xmlns="http://www.w3.org/2000/svg">
<path fill-rule="evenodd" clip-rule="evenodd" d="M75 202.266C75 214.844 85.1562 225 97.7344 225H402.266C414.844 225 425 214.844 425 202.266C425 200.781 424.922 199.375 424.531 197.891C420.391 181.484 388.438 75 250 75C111.562 75 79.6094 181.484 75.4687 197.891C75.1562 199.375 75 200.781 75 202.266ZM150 137.5C156.875 137.5 162.5 143.125 162.5 150C162.5 156.875 156.875 162.5 150 162.5C143.125 162.5 137.5 156.875 137.5 150C137.5 143.125 143.125 137.5 150 137.5ZM362.5 150C362.5 156.875 356.875 162.5 350 162.5C343.125 162.5 337.5 156.875 337.5 150C337.5 143.125 343.125 137.5 350 137.5C356.875 137.5 362.5 143.125 362.5 150ZM250 112.5C256.875 112.5 262.5 118.125 262.5 125C262.5 131.875 256.875 137.5 250 137.5C243.125 137.5 237.5 131.875 237.5 125C237.5 118.125 243.125 112.5 250 112.5ZM87.5 350C80.625 350 75 355.625 75 362.5V375C75 402.578 97.4219 425 125 425H375C402.578 425 425 402.578 425 375V362.5C425 355.625 419.375 350 412.5 350H87.5Z" fill="#CB9543"/>
<path d="M62.5 287.5C62.5 266.797 79.2969 250 100 250H400C420.703 250 437.5 266.797 437.5 287.5C437.5 308.203 420.703 325 400 325H100C79.2969 325 62.5 308.203 62.5 287.5Z" fill="#7C441A"/>
</svg>
