<svg width="500" height="500" viewBox="0 0 500 500" fill="none" xmlns="http://www.w3.org/2000/svg">
<g clip-path="url(#clip0_36_61)">
<path d="M175 187.5C175 173.672 163.828 162.5 150 162.5C136.172 162.5 125 173.672 125 187.5V225C97.4219 225 75 247.422 75 275V330.469C81.4844 334.531 89.1406 337.5 97.5 337.5C108.047 337.5 118.75 332.734 127.5 327.031C131.719 324.297 135.234 321.484 137.656 319.453C138.828 318.438 139.766 317.578 140.391 317.031C140.703 316.719 140.938 316.562 141.016 316.406L141.094 316.328C143.516 313.828 146.875 312.5 150.391 312.578C153.906 312.656 157.109 314.219 159.453 316.797L159.531 316.875L160.078 317.422C160.625 317.969 161.406 318.75 162.5 319.766C164.688 321.797 167.812 324.531 171.719 327.188C179.688 332.734 189.688 337.422 200.078 337.422C210.469 337.422 220.469 332.734 228.438 327.188C232.344 324.453 235.469 321.797 237.656 319.766C238.75 318.75 239.531 317.969 240.078 317.422L240.625 316.875L240.703 316.797C243.047 314.062 246.484 312.578 250.078 312.578C253.672 312.578 257.109 314.141 259.453 316.797L259.531 316.875L260.078 317.422C260.625 317.969 261.406 318.75 262.5 319.766C264.688 321.797 267.812 324.531 271.719 327.188C279.688 332.734 289.688 337.422 300.078 337.422C310.469 337.422 320.469 332.734 328.438 327.188C332.344 324.453 335.469 321.797 337.656 319.766C338.75 318.75 339.531 317.969 340.078 317.422L340.625 316.875L340.703 316.797C342.969 314.141 346.25 312.656 349.766 312.578C353.281 312.5 356.562 313.828 359.062 316.328L359.141 316.406L359.766 317.031C360.391 317.578 361.25 318.438 362.5 319.453C364.922 321.484 368.359 324.297 372.656 327.031C381.406 332.734 392.109 337.5 402.656 337.5C411.016 337.5 418.672 334.453 425.156 330.469V275C425.156 247.422 402.734 225 375.156 225V187.5C375.156 173.672 363.984 162.5 350.156 162.5C336.328 162.5 325.156 173.672 325.156 187.5V225H275V187.5C275 173.672 263.828 162.5 250 162.5C236.172 162.5 225 173.672 225 187.5V225H175V187.5Z" fill="#F6A0F2"/>
<path d="M425 358.281C418.359 360.859 410.781 362.5 402.5 362.5C384.922 362.5 369.375 354.766 358.906 347.969C355.703 345.859 352.812 343.75 350.391 341.875C348.203 343.75 345.625 345.781 342.734 347.734C332.656 354.687 317.656 362.5 300 362.5C282.344 362.5 267.344 354.687 257.344 347.734C254.609 345.859 252.109 343.906 250 342.109C247.891 343.906 245.391 345.781 242.656 347.734C232.656 354.687 217.656 362.5 200 362.5C182.344 362.5 167.344 354.687 157.344 347.734C154.453 345.703 151.875 343.672 149.688 341.875C147.266 343.75 144.375 345.859 141.172 347.969C130.625 354.766 115.078 362.5 97.5 362.5C89.2188 362.5 81.6406 360.781 75 358.281V425C75 438.828 86.1719 450 100 450H400C413.828 450 425 438.828 425 425V358.281Z" fill="#C73FC1"/>
<path fill-rule="evenodd" clip-rule="evenodd" d="M223.281 87.1875L242.5 54.2969C244.062 51.6406 246.875 50 250 50C253.125 50 255.938 51.6406 257.5 54.2969L276.719 87.1875C279.688 92.3438 281.25 98.125 281.25 104.062V106.25C281.25 123.516 267.266 137.5 250 137.5C232.734 137.5 218.75 123.516 218.75 106.25V104.062C218.75 98.125 220.312 92.2656 223.281 87.1875ZM318.75 104.062C318.75 98.125 320.312 92.2656 323.281 87.1875L342.5 54.2969C344.062 51.6406 346.875 50 350 50C353.125 50 355.938 51.6406 357.5 54.2969L376.719 87.1875C379.688 92.3438 381.25 98.125 381.25 104.062V106.25C381.25 123.516 367.266 137.5 350 137.5C332.734 137.5 318.75 123.516 318.75 106.25V104.062Z" fill="#F58D41"/>
<path d="M142.5 54.2969L123.281 87.1875C120.312 92.2656 118.75 98.125 118.75 104.062V106.25C118.75 123.516 132.734 137.5 150 137.5C167.266 137.5 181.25 123.516 181.25 106.25V104.062C181.25 98.125 179.688 92.3438 176.719 87.1875L157.5 54.2969C155.938 51.6406 153.125 50 150 50C146.875 50 144.062 51.6406 142.5 54.2969Z" fill="#F58D41"/>
</g>
<defs>
<clipPath id="clip0_36_61">
<rect width="350" height="400" fill="white" transform="translate(75 50)"/>
</clipPath>
</defs>
</svg>
