<svg width="500" height="500" viewBox="0 0 500 500" fill="none" xmlns="http://www.w3.org/2000/svg">
<g clip-path="url(#clip0_36_64)">
<path fill-rule="evenodd" clip-rule="evenodd" d="M300 106.25C300 83.0469 313.75 63.2813 320.859 54.6875C323.438 51.5625 327.266 50 331.25 50C335.234 50 339.063 51.5625 341.563 54.6875C348.672 63.5938 362.5 84.6094 362.5 112.5C362.5 137.5 356.25 143.75 356.25 143.75C356.25 143.75 362.5 137.5 387.5 137.5C415.391 137.5 436.406 151.328 445.312 158.438C448.438 160.938 450 164.766 450 168.75C450 172.734 448.438 176.563 445.312 179.141C436.719 186.25 416.953 200 393.75 200C362.5 200 350.547 188.047 331.25 168.75C311.953 149.453 300 137.5 300 106.25Z" fill="#23912E"/>
<path d="M241.094 156.25C209.844 156.25 180.859 170.391 161.641 193.906L208.906 241.172C213.75 246.016 213.75 253.984 208.906 258.828C204.063 263.672 196.094 263.672 191.25 258.828L148.047 215.625V215.703L51.7188 423.359C48.4375 430.469 49.9219 438.906 55.4688 444.531C61.0156 450.156 69.4531 451.563 76.6406 448.281L181.875 399.531L141.172 358.828C136.328 353.984 136.328 346.016 141.172 341.172C146.016 336.328 153.984 336.328 158.828 341.172L206.016 388.281L284.297 352.031C320.547 335.234 343.828 298.906 343.828 258.906C343.75 202.188 297.813 156.25 241.094 156.25Z" fill="#F58D41"/>
</g>
<defs>
<clipPath id="clip0_36_64">
<rect width="400" height="400" fill="white" transform="translate(50 50)"/>
</clipPath>
</defs>
</svg>
