<svg width="500" height="500" viewBox="0 0 500 500" fill="none" xmlns="http://www.w3.org/2000/svg">
<g clip-path="url(#clip0_37_132)">
<path fill-rule="evenodd" clip-rule="evenodd" d="M100 68.75C100 58.3594 108.359 50 118.75 50C129.141 50 137.5 58.3594 137.5 68.75C137.5 81.3281 143.359 87.2656 156.094 98.3594L156.953 99.1406C169.219 109.844 187.5 125.859 187.5 156.25C187.5 166.641 179.141 175 168.75 175C158.359 175 150 166.641 150 156.25C150 143.672 144.141 137.734 131.406 126.641L130.547 125.859C118.281 115.156 100 99.1406 100 68.75ZM206.25 50C216.641 50 225 58.3594 225 68.75C225 81.3281 230.859 87.2656 243.594 98.3594L244.453 99.1406C256.719 109.844 275 125.859 275 156.25C275 166.641 266.641 175 256.25 175C245.859 175 237.5 166.641 237.5 156.25C237.5 143.672 231.641 137.734 218.906 126.641L218.047 125.859C205.781 115.156 187.5 99.1406 187.5 68.75C187.5 58.3594 195.859 50 206.25 50Z" fill="#EFEFEF"/>
<path fill-rule="evenodd" clip-rule="evenodd" d="M75 200C61.1719 200 50 211.172 50 225V375C50 416.406 83.5938 450 125 450H275C316.406 450 350 416.406 350 375H362.5C410.859 375 450 335.859 450 287.5C450 239.141 410.859 200 362.5 200H75ZM362.5 250H350V325H362.5C383.203 325 400 308.203 400 287.5C400 266.797 383.203 250 362.5 250Z" fill="#E8E4DB"/>
</g>
<defs>
<clipPath id="clip0_37_132">
<rect width="400" height="400" fill="white" transform="translate(50 50)"/>
</clipPath>
</defs>
</svg>
