<svg width="500" height="500" viewBox="0 0 500 500" fill="none" xmlns="http://www.w3.org/2000/svg">
<path d="M243.125 63.2813C225.859 60.8594 208.281 63.9844 192.813 72.1876L135 103.047C119.609 111.25 107.188 124.141 99.5313 139.844L70.8594 198.906C63.2031 214.609 60.7031 232.422 63.75 249.609L75.0781 314.297C78.125 331.563 86.4844 347.344 99.0625 359.531L146.172 405.156C158.75 417.344 174.766 425.156 192.031 427.578L256.875 436.719C274.141 439.141 291.719 436.016 307.188 427.813L365 396.953C380.391 388.75 392.813 375.859 400.469 360.078L429.141 301.094C436.797 285.391 439.297 267.578 436.25 250.391L424.844 185.703C421.797 168.438 413.438 152.656 400.859 140.469L353.828 94.9219C341.25 82.7344 325.234 74.9219 307.969 72.5001L243.125 63.2813ZM212.5 212.5C198.672 212.5 187.5 201.328 187.5 187.5C187.5 173.672 198.672 162.5 212.5 162.5C226.328 162.5 237.5 173.672 237.5 187.5C237.5 201.328 226.328 212.5 212.5 212.5ZM212.5 312.5C212.5 326.328 201.328 337.5 187.5 337.5C173.672 337.5 162.5 326.328 162.5 312.5C162.5 298.672 173.672 287.5 187.5 287.5C201.328 287.5 212.5 298.672 212.5 312.5ZM337.5 312.5C323.672 312.5 312.5 301.328 312.5 287.5C312.5 273.672 323.672 262.5 337.5 262.5C351.328 262.5 362.5 273.672 362.5 287.5C362.5 301.328 351.328 312.5 337.5 312.5Z" fill="#AB7B34"/>
</svg>
