<svg width="500" height="500" viewBox="0 0 500 500" fill="none" xmlns="http://www.w3.org/2000/svg">
<path d="M250 437.5C167.188 437.5 100 357.812 100 275C100 187.5 150 62.5 250 62.5C350 62.5 400 187.5 400 275C400 357.812 332.812 437.5 250 437.5ZM220.938 154.688C226.016 150 226.406 142.109 221.719 137.031C217.031 131.953 209.141 131.563 204.062 136.25C185.391 153.281 171.953 177.422 163.203 202.031C154.453 226.641 150 252.891 150 275C150 281.875 155.625 287.5 162.5 287.5C169.375 287.5 175 281.875 175 275C175 255.859 178.906 232.5 186.797 210.312C194.687 188.047 206.328 168.047 220.938 154.688Z" fill="#F0EFE4"/>
</svg>
