<svg width="500" height="500" viewBox="0 0 500 500" fill="none" xmlns="http://www.w3.org/2000/svg">
<g clip-path="url(#clip0_36_105)">
<path d="M241.111 98.6666C233.75 93.1111 223.75 92.7638 215.903 97.6249C208.056 102.486 204.167 111.792 205.972 120.819L212.708 154.569C199.236 160.819 187.083 168.389 176.319 176.444C165.694 184.43 156.181 193.042 148.056 201.653L83.4028 163.944C74.7222 158.875 63.6805 160.264 56.5278 167.347C49.375 174.431 47.9167 185.403 52.9167 194.153L84.7222 249.778L52.9167 305.403C47.9167 314.153 49.4444 325.125 56.5972 332.208C63.75 339.292 74.7222 340.68 83.4722 335.611L148.125 297.903C156.319 306.444 165.764 315.125 176.389 323.111C187.153 331.167 199.306 338.736 212.778 344.986L206.042 378.736C204.236 387.764 208.194 397 215.972 401.861C223.75 406.722 233.75 406.375 241.181 400.819L295.069 360.403C333.194 357.625 365.556 341.653 390.347 323.042C417.569 302.625 437.014 278.111 447.014 260.889C451.042 254.014 451.042 245.472 447.014 238.597C437.014 221.375 417.5 196.861 390.347 176.444C365.486 157.833 333.194 141.861 295.069 139.083L241.111 98.6666ZM361.111 249.778C361.111 262.069 351.181 272 338.889 272C326.597 272 316.667 262.069 316.667 249.778C316.667 237.486 326.597 227.555 338.889 227.555C351.181 227.555 361.111 237.486 361.111 249.778Z" fill="#86A8B2"/>
</g>
<defs>
<clipPath id="clip0_36_105">
<rect width="400" height="355.556" fill="white" transform="translate(50 72)"/>
</clipPath>
</defs>
</svg>
