<svg width="500" height="500" viewBox="0 0 500 500" fill="none" xmlns="http://www.w3.org/2000/svg">
<g clip-path="url(#clip0_36_63)">
<path fill-rule="evenodd" clip-rule="evenodd" d="M424.375 199.375L199.375 424.375L211.719 436.719C220.234 445.234 231.719 450 243.75 450C255.781 450 267.266 445.234 275.781 436.719L436.719 275.781C445.234 267.266 450 255.781 450 243.75C450 231.719 445.234 220.234 436.719 211.719L424.375 199.375ZM50 256.25C50 268.281 54.7656 279.766 63.2812 288.281L75.625 300.625L300.625 75.625L288.281 63.2812C279.766 54.7656 268.281 50 256.25 50C244.219 50 232.734 54.7656 224.219 63.2812L63.2812 224.219C54.7656 232.734 50 244.219 50 256.25Z" fill="#CB9543"/>
<path fill-rule="evenodd" clip-rule="evenodd" d="M431.719 68.2812C456.094 92.6562 456.094 132.266 431.719 156.641L156.719 431.641C132.344 456.016 92.7344 456.016 68.3594 431.641C43.9844 407.266 43.9844 367.656 68.3594 343.281L343.359 68.2812C367.734 43.9062 407.344 43.9062 431.719 68.2812ZM378.672 122.422C383.516 117.578 391.484 117.578 396.328 122.422C401.172 127.266 401.172 135.234 396.328 140.078C381.094 155.312 366.016 158.516 353.828 160.703L353.125 160.859C341.641 162.891 334.766 164.141 327.578 171.328C320 178.906 317.969 187.344 315.312 199.531L315.156 200.312C312.656 211.953 309.375 227.031 296.328 240.078C283.281 253.125 268.203 256.406 256.562 258.906L255.781 259.062C243.594 261.719 235.156 263.75 227.578 271.328C220 278.906 217.969 287.344 215.312 299.531L215.156 300.312C212.656 311.953 209.375 327.031 196.328 340.078C183.632 352.774 169.862 355.268 159.123 357.212L158.828 357.266L156.875 357.578C146.172 359.531 137.344 361.562 127.578 371.328C122.734 376.172 114.766 376.172 109.922 371.328C105.078 366.484 105.078 358.516 109.922 353.672C125.156 338.438 140.234 335.234 152.422 333.047L153.125 332.891C164.609 330.859 171.484 329.609 178.672 322.422C186.25 314.844 188.281 306.406 190.938 294.219L191.094 293.438C193.594 281.797 196.875 266.719 209.922 253.672C222.969 240.625 238.047 237.344 249.688 234.844L250.469 234.688C262.656 232.031 271.094 230 278.672 222.422C286.25 214.844 288.281 206.406 290.938 194.219L291.094 193.438C293.594 181.797 296.875 166.719 309.922 153.672C322.618 140.976 336.388 138.482 347.127 136.538L347.422 136.484L349.375 136.172C360.078 134.219 368.906 132.188 378.672 122.422Z" fill="#CB4343"/>
</g>
<defs>
<clipPath id="clip0_36_63">
<rect width="400" height="400" fill="white" transform="translate(50 50)"/>
</clipPath>
</defs>
</svg>
