<svg width="500" height="500" viewBox="0 0 500 500" fill="none" xmlns="http://www.w3.org/2000/svg">
<g clip-path="url(#clip0_12_3)">
<path fill-rule="evenodd" clip-rule="evenodd" d="M231.875 438.828L150 275H350L268.125 438.828C264.688 445.703 257.734 450 250 450C242.266 450 235.312 445.703 231.875 438.828Z" fill="#CB9543"/>
<path d="M361.797 175C362.266 170.859 362.5 166.719 362.5 162.5C362.5 100.391 312.109 50 250 50C187.891 50 137.5 100.391 137.5 162.5C137.5 166.719 137.734 170.859 138.203 175H137.5C116.797 175 100 191.797 100 212.5C100 233.203 116.797 250 137.5 250H362.5C383.203 250 400 233.203 400 212.5C400 191.797 383.203 175 362.5 175H361.797Z" fill="#F4CAD4"/>
</g>
<defs>
<clipPath id="clip0_12_3">
<rect width="300" height="400" fill="white" transform="translate(100 50)"/>
</clipPath>
</defs>
</svg>
