<svg width="500" height="500" viewBox="0 0 500 500" fill="none" xmlns="http://www.w3.org/2000/svg">
<path d="M425 125C425 97.4219 402.578 75 375 75C369.844 75 364.844 75.7813 360.156 77.2656C342.578 82.7344 322.578 88.9063 304.688 84.2969C245.938 69.375 182.5 92.8906 137.734 137.656C92.9688 182.422 69.375 245.938 84.2969 304.688C88.8281 322.578 82.7344 342.5 77.2656 360.156C75.7813 364.844 75 369.844 75 375C75 402.578 97.4219 425 125 425C130.156 425 135.156 424.219 139.922 422.734C157.5 417.266 177.5 411.094 195.391 415.703C254.141 430.625 317.578 407.109 362.344 362.344C407.109 317.578 430.703 254.141 415.703 195.391C411.172 177.5 417.266 157.578 422.734 139.922C424.219 135.234 425 130.234 425 125ZM241.016 149.531C198.359 162.031 162.031 198.359 149.531 241.016C147.578 247.656 140.625 251.406 133.984 249.531C127.344 247.656 123.594 240.625 125.469 233.984C140.391 183.125 183.047 140.391 233.984 125.469C240.625 123.516 247.578 127.344 249.531 133.984C251.484 140.625 247.656 147.578 241.016 149.531Z" fill="#F1EA45"/>
</svg>
