<svg width="500" height="500" viewBox="0 0 500 500" fill="none" xmlns="http://www.w3.org/2000/svg">
<g clip-path="url(#clip0_36_123)">
<path fill-rule="evenodd" clip-rule="evenodd" d="M410.078 59.6094C405.078 50.5469 393.672 47.3437 384.609 52.3437V52.4219C375.547 57.4219 372.344 68.8281 377.344 77.8906L381.094 84.6875C388.672 98.2812 390.078 114.062 385.781 128.281C367.812 118.203 347.109 112.5 325 112.5C306.016 112.5 288.047 116.719 271.953 124.297C256.953 131.328 263.75 150 280.391 150H293.75C304.141 150 312.5 158.359 312.5 168.75V231.25C312.5 241.641 320.859 250 331.25 250H388.359C395.469 250 401.953 254.062 405.156 260.391L414.297 278.672C420.781 291.484 438.281 292.266 443.047 278.75C447.578 265.859 450 251.953 450 237.5C450 204.609 437.344 174.688 416.484 152.344C429.297 125.547 428.906 93.5156 413.828 66.4062L410.078 59.6094Z" fill="#23912E"/>
<path d="M183.75 319.922L256.25 175H287.5V237.5C287.5 258.203 304.297 275 325 275H384.531L403.203 312.344C340.859 396.797 240.859 450 130.625 450H84.6875C65.5469 450 50 434.453 50 415.312C50 399.062 61.3281 385 77.1875 381.484L116.094 372.812C145.469 366.25 170.391 346.875 183.828 319.922H183.75Z" fill="#ED3548"/>
</g>
<defs>
<clipPath id="clip0_36_123">
<rect width="400" height="400" fill="white" transform="translate(50 50)"/>
</clipPath>
</defs>
</svg>
