<svg width="500" height="500" viewBox="0 0 500 500" fill="none" xmlns="http://www.w3.org/2000/svg">
<g clip-path="url(#clip0_36_108)">
<path fill-rule="evenodd" clip-rule="evenodd" d="M145.469 77.8125C149.844 61.6407 164.766 49.4532 182.578 50.7032C325.391 60.5469 439.453 174.609 449.297 317.422C450.547 335.234 438.438 350.234 422.188 354.531L387.5 363.75V362.5C387.5 224.453 275.547 112.5 137.5 112.5H136.25L145.469 77.8125Z" fill="#CB9543"/>
<path fill-rule="evenodd" clip-rule="evenodd" d="M362.344 370.469C362.422 367.813 362.5 365.156 362.5 362.5C362.5 238.203 261.797 137.5 137.5 137.5C134.844 137.5 132.188 137.578 129.531 137.656L50.3906 434.297C49.2188 438.594 50.4688 443.203 53.5938 446.328C56.7188 449.453 61.3281 450.703 65.625 449.531L362.344 370.469ZM162.5 237.5C162.5 251.328 173.672 262.5 187.5 262.5C201.328 262.5 212.5 251.328 212.5 237.5C212.5 223.672 201.328 212.5 187.5 212.5C173.672 212.5 162.5 223.672 162.5 237.5ZM262.5 337.5C276.328 337.5 287.5 326.328 287.5 312.5C287.5 298.672 276.328 287.5 262.5 287.5C248.672 287.5 237.5 298.672 237.5 312.5C237.5 326.328 248.672 337.5 262.5 337.5ZM150 375C163.828 375 175 363.828 175 350C175 336.172 163.828 325 150 325C136.172 325 125 336.172 125 350C125 363.828 136.172 375 150 375Z" fill="#DA5151"/>
</g>
<defs>
<clipPath id="clip0_36_108">
<rect width="400" height="400" fill="white" transform="translate(50 50)"/>
</clipPath>
</defs>
</svg>
