<svg width="500" height="500" viewBox="0 0 500 500" fill="none" xmlns="http://www.w3.org/2000/svg">
<path fill-rule="evenodd" clip-rule="evenodd" d="M100 150C72.4219 150 50 172.422 50 200C50 209.141 52.4219 217.656 56.7188 225H443.281C447.578 217.656 450 209.141 450 200C450 172.422 427.578 150 400 150H398.75C392.969 121.484 367.734 100 337.5 100C325.781 100 314.844 103.203 305.547 108.75C295.156 88.75 274.141 75 250 75C225.859 75 204.844 88.75 194.453 108.75C185.156 103.203 174.219 100 162.5 100C132.266 100 107.031 121.484 101.25 150H100Z" fill="#F1EFEF"/>
<path d="M50 271.406C50 259.609 59.6094 250 71.4062 250H428.594C440.391 250 450 259.609 450 271.406C450 326.484 415.312 373.516 366.641 391.797L365.234 403.125C363.672 415.625 353.047 425 340.391 425H159.531C146.953 425 136.25 415.625 134.688 403.125L133.281 391.875C84.6875 373.516 50 326.484 50 271.406Z" fill="#CB9543"/>
</svg>
