<svg width="500" height="500" viewBox="0 0 500 500" fill="none" xmlns="http://www.w3.org/2000/svg">
<g clip-path="url(#clip0_36_117)">
<path d="M400 50C387.5 50 300 75 300 187.5V275C300 302.578 322.422 325 350 325H375V425C375 438.828 386.172 450 400 450C413.828 450 425 438.828 425 425V75C425 61.1719 413.828 50 400 50ZM125 62.5C125 56.0938 120.234 50.7812 113.828 50.0781C107.422 49.375 101.719 53.5937 100.313 59.7656L76.6406 166.25C75.5469 171.172 75 176.172 75 181.172C75 217.031 102.422 246.484 137.5 249.688V425C137.5 438.828 148.672 450 162.5 450C176.328 450 187.5 438.828 187.5 425V249.688C222.578 246.484 250 217.031 250 181.172C250 176.172 249.453 171.172 248.359 166.25L224.688 59.7656C223.281 53.5156 217.422 49.375 211.094 50.0781C204.766 50.7812 200 56.0938 200 62.5V167.344C200 171.562 196.562 175 192.344 175C188.359 175 185.078 171.953 184.687 167.969L174.922 61.4063C174.375 54.9219 168.984 50 162.5 50C156.016 50 150.625 54.9219 150.078 61.4063L140.391 167.969C140 171.953 136.719 175 132.734 175C128.516 175 125.078 171.562 125.078 167.344V62.5H125ZM162.734 181.25H162.266L162.5 180.703L162.734 181.25Z" fill="#B3B3B3"/>
</g>
<defs>
<clipPath id="clip0_36_117">
<rect width="350" height="400" fill="white" transform="translate(75 50)"/>
</clipPath>
</defs>
</svg>
