<svg width="500" height="500" viewBox="0 0 500 500" fill="none" xmlns="http://www.w3.org/2000/svg">
<path d="M125 50C118.047 50 111.406 52.8906 106.719 57.9687C102.031 63.0469 99.6093 69.8437 100.078 76.7969L122.578 391.953C124.922 424.688 152.109 450 184.922 450H315.078C347.891 450 375.078 424.688 377.422 391.953L399.922 76.7969C400.391 69.8437 398.047 63.0469 393.281 57.9687C388.516 52.8906 381.953 50 375 50H125ZM157.031 172.266L151.875 100H348.125L342.969 172.266L324.062 181.719C308.906 189.297 291.094 189.297 275.937 181.719C267.879 177.711 259.001 175.625 250 175.625C240.999 175.625 232.121 177.711 224.062 181.719C208.906 189.297 191.094 189.297 175.937 181.719L157.031 172.266Z" fill="#9ED9E1"/>
</svg>
